<?xml version="1.0" encoding="UTF-8"?>
<svg xmlns="http://www.w3.org/2000/svg" viewBox="0 0 508.85 702.57">
  <g id="rentegningStol">
    <path d="M244.89,412s30.3-234.89-110.64-218.21c0,0-121.19,5.45-37.96,204.09,0,0-19.91,17.87,14.81,49.02,0,0-6.64,154.21-11.23,159.32,0,0,77.11.51,106.21,14.3,0,0,13.28,11.74,29.62,0,0,0,54.13-20.94,111.32-20.43,0,0-36.77-71.49-32.68-99.57l-5.62-35.74s21.96,5.11,18.89-16.85c0,0-1.02-17.36-17.87-23.49,0,0-17.36-5.96-64.85-12.43Z" style="fill: #d6b167; stroke: #3c2415; stroke-miterlimit: 10;"/>
    <path d="M130.45,322.52l-.9-.44c10.93-22.37-5.34-38.07-5.51-38.22l-.16-.15v-.22c1.01-36.03-27-49.95-27.29-50.09l.43-.9c.29.14,28.76,14.29,27.86,50.8,1.72,1.75,16.23,17.42,5.56,39.23Z" style="fill: #bc790d;"/>
    <path d="M163.15,313.29l-.94-.35c8.98-23.94-4.88-40.7-5.02-40.86l-.11-.13v-.17c-2.01-36.06-23.23-46.96-23.44-47.07l.44-.9c.22.11,21.89,11.24,23.98,47.75,1.32,1.66,13.84,18.37,5.08,41.73Z" style="fill: #9b6400;"/>
    <path d="M217.78,313.3l-.92-.38c7.46-17.9-6.44-37.11-6.58-37.3l-.09-.12v-.16c-1.51-46.03-23.46-54.61-23.68-54.7l.34-.94c.23.08,22.75,8.81,24.32,55.45,1.22,1.74,13.96,20.5,6.61,38.15Z" style="fill: #9b6400;"/>
    <path d="M165.5,476.43c-18.64-11.6-45.66-24.86-45.93-25l.44-.9c.27.13,27.34,13.42,46.02,25.04l-.53.85Z" style="fill: #9b6400;"/>
    <path d="M207.21,519.88l-.3-.95c31.84-10.12,67.26-9.22,67.61-9.21l-.03,1c-.35-.01-35.61-.9-67.28,9.17Z" style="fill: #9b6400;"/>
    <path d="M228.66,618.77c-19.25-26.34-37.18-110.66-37.36-111.51l.98-.21c.18.85,18.07,84.96,37.19,111.13l-.81.59Z" style="fill: #9b6400;"/>
    <path d="M202.67,614.58c-6.99-16.74-11.2-84.6-11.38-87.48l1-.06c.04.7,4.37,70.58,11.3,87.16l-.92.38Z" style="fill: #9b6400;"/>
    <path d="M298.62,434.7c-8.94-12.15-57.36-14.11-57.85-14.12l.04-1c2.01.08,49.39,2,58.62,14.53l-.81.59Z" style="fill: #c07800;"/>
    <path d="M184.52,493.87c-9.97,0-18.79-12.1-19.86-27.56-.53-7.66.89-15.01,4-20.68,3.15-5.75,7.66-9.1,12.7-9.46,5.03-.36,9.97,2.35,13.89,7.6,3.87,5.19,6.29,12.27,6.83,19.93,1.11,15.9-6.38,29.42-16.7,30.14-.29.02-.57.03-.86.03ZM182.23,437.15c-.27,0-.53,0-.8.03-4.69.33-8.91,3.5-11.9,8.94-3.02,5.51-4.4,12.66-3.88,20.13,1.04,14.93,9.41,26.63,18.86,26.63.27,0,.53,0,.8-.03,9.77-.68,16.84-13.72,15.77-29.07-.52-7.47-2.88-14.36-6.63-19.4-3.5-4.69-7.81-7.23-12.22-7.23Z" style="fill: #9b6400;"/>
    <path d="M310.75,461.03c-6.64-6.93-9.5-13.43-8.5-19.32,1.28-7.51,8.33-11.17,8.63-11.32l.45.89c-.07.04-6.91,3.6-8.1,10.6-.94,5.56,1.83,11.76,8.24,18.45l-.72.69Z" style="fill: #c07800;"/>
  </g>
  <g id="rentegingKrop">
    <path d="M186.31,301.59l-7.66,11.74s-3.06-8.94-15.83-18.64c0,0-2.81-69.96-17.11-65.62-13.66,8.55-26.68-22.34-.77-13.53,3.83-.26-13.79-92.17,71.49-41.11,0,0,9.83,12.77.38,19.4,0,0-5.57,6.34-.97,17.06,0,0,2.38,1.07.84,10.26,0,0,2.04,2.81,6.64,1.28s1.79,9.45-11.23,10.21c0,0,5.11,2.55,0,16.85,0,0,10.98,22.98-17.87,15.06,0,0-16.34,39.32-7.91,37.02Z" style="fill: #fdd2b0; stroke: #3c2415; stroke-miterlimit: 10;"/>
    <path d="M145.91,223.53l-1-.06s.06-1.18-.6-2.32c-1.06-1.84-3.4-2.62-6.76-2.26l-.11-.99c4.79-.51,6.85,1.21,7.74,2.75.81,1.41.73,2.82.73,2.88Z" style="fill: #c27f2a;"/>
    <path d="M137.98,223.58l-.97-.25c.02-.08.51-1.96,2.11-2.67,1.02-.46,2.23-.32,3.59.39l-.47.88c-1.07-.56-1.98-.69-2.71-.37-1.15.51-1.55,1.99-1.55,2.01Z" style="fill: #c27f2a;"/>
    <path d="M192.04,203.16c0,3.23-.55,8.96-4.34,8.82-2.66-.1-6.07-3.77-5.91-8.82.16-4.97,4.59-8.98,5.62-10.05,2.16-2.23,4.63,6.82,4.63,10.05Z" style="fill: #fff; stroke: #3c2415; stroke-miterlimit: 10; stroke-width: .75px;"/>
    <path d="M217.92,202.54c.54,4.61-2.02,9.43-4.5,9.43s-4.5-4.22-4.5-9.43c0-5.21,2.02-9.43,4.5-9.43s3.96,4.82,4.5,9.43Z" style="fill: #fff; stroke: #3c2415; stroke-miterlimit: 10; stroke-width: .75px;"/>
    <path d="M180.65,202.66l-.44-.23c4.06-7.69,7.46-11.47,10.15-11.2,2.03.19,2.79,2.6,2.82,2.71l-.48.15s-.7-2.2-2.39-2.35c-1.68-.17-4.74,1.61-9.66,10.94Z" style="fill: #3c2415;"/>
    <path d="M190.45,214.08c-3.29-3.9-10.75-1.1-10.83-1.08l-.18-.47c.32-.12,7.86-2.95,11.39,1.22l-.38.32Z" style="fill: #754c29;"/>
    <ellipse cx="188.42" cy="204.74" rx="3.33" ry="6.14" style="fill: #754c29; stroke: #3c2415; stroke-miterlimit: 10; stroke-width: .75px;"/>
    <ellipse cx="214.59" cy="204.74" rx="3.33" ry="6.14" style="fill: #754c29; stroke: #3c2415; stroke-miterlimit: 10; stroke-width: .75px;"/>
    <path d="M217.06,222.5c-.17-.1-17.03-9.98-10.77-32.09l.72.2c-6.1,21.55,10.25,31.14,10.42,31.23l-.37.65Z" style="fill: #3c2415;"/>
    <path d="M190.67,187.68s1.33-2.89-.89-5.28c0,0,.6,2.55,0,3.06,0,0-9.96-14.04-17.28,12.26,0,0,7.31-18.47,18.16-10.04Z" style="fill: #8b5e3c; stroke: #3c2415; stroke-miterlimit: 10; stroke-width: .5px;"/>
    <path d="M181.79,232.57s-9.27,4.83-4.06,11.52c0,0,2.66,1.58,5.21-2.67,0,0,1.19,6.36,9.11-2.95,0,0,.43,6.25,8.09,0,0,0-.27,6.33,7.32.73,0,0,.28,4.26,6.01.68,0,0,4.41,5.13.84-3.72h0s-.5-6.15-5.38-1.39c0,0,.23-7.49-6.75-1.19,0,0-1.07-7.09-6.98.34,0,0,.64-5.11-8.28,1.02,0,0,.87-4.43-5.13-2.38Z" style="fill: #8b5e3c; stroke: #3c2415; stroke-miterlimit: 10; stroke-width: .75px;"/>
    <path d="M141.34,176.39s-24.59,7.93-4.2,36.98c0,0,9.16,1.63,9.16,1.63h0s9.27,13.41,5.31,5.34c-3.96-8.06,6.15-35.08,6.48-33.37,1.54,8,11.08-1.74,19.41-9.23,0,0,0,0,0,0,4.54-6.39,24.29-10,35.97-5.05,11.68,4.95,17.14-10.74-4.15-17.41,0,0-4.77-18.89-24.68-8.85,0,0-44.64-11.54-43.29,29.96Z" style="fill: #754c29; stroke: #3c2415; stroke-miterlimit: 10; stroke-width: .75px;"/>
    <path d="M207.72,189.02s-.72-3.23,3.98-5.11c0,0,6.23-2.72,8.11,2.55,0,0,.27-1.93-2.61-4.63-.84-.78-1.9-1.29-3.03-1.48-3.11-.51-7.91-2.24-6.45,8.66Z" style="fill: #8b5e3c; stroke: #3c2415; stroke-miterlimit: 10; stroke-width: .75px;"/>
    <path d="M177.73,248.09s-1.09,13.53,14.03,14.64c0,0-7.01-3.06-14.03-14.64Z" style="fill: #d39d6c;"/>
    <path d="M190.29,245.43s6.11,4.51,14.74,4.3c0,0-12.23,12.23-14.74-4.3Z" style="fill: #db948f; stroke: #3c2415; stroke-miterlimit: 10; stroke-width: .75px;"/>
    <path d="M191.45,246.86s5.57,3.94,12.46,3.39c0,0-7.83,4.41-12.46-3.39Z" style="fill: #fff;"/>
    <g>
      <path d="M344.23,406.91s25.77-1.06,24.06,2c0,0-6.34.68-13.11.38.1.05,10.04.86,6.98,1.99,0,0-1.79.54-8.23.25,0,0,3.89-.23,3.38,1.43,0,0-2.68,1.28-8.23.45,0,0,5.04.51,3.51,1.91,0,0-2.94.89-10.53-.26" style="fill: #eab896;"/>
      <path d="M348.95,416.16c-1.68,0-3.96-.14-6.96-.59-.27-.04-.46-.3-.42-.57.04-.27.3-.46.57-.42,6.54.99,9.59.44,10.2.3.04-.05.05-.08.05-.08-.12-.23-1.2-.57-2.46-.77-.3-.03-.6-.08-.91-.12-.27-.04-.46-.29-.42-.56.03-.27.28-.46.55-.43.26.03.61.07,1,.13,3.78.42,6.01-.19,6.72-.44,0-.03-.02-.05-.04-.07-.18-.23-.69-.37-1.28-.45-.51-.01-1.05-.03-1.63-.06-.27-.01-.48-.23-.48-.5,0-.27.21-.49.47-.5.24-.01.98-.04,1.75.06,4.06.11,5.78-.17,6.23-.26-.68-.23-2.32-.57-6.16-.98q-.67-.07-.77-.12c-.21-.11-.32-.35-.25-.57.06-.23.25-.36.51-.37,5.51.24,10.79-.17,12.48-.33-1.59-1.2-13.05-1.49-23.44-1.06-.28,0-.51-.2-.52-.48-.01-.28.2-.51.48-.52,3.82-.16,22.96-.81,24.52,1.7.2.32.2.69,0,1.04-.08.14-.22.24-.38.25-.04,0-2.72.29-6.42.41,1.1.32,1.28.62,1.32.96.08.62-.67.89-.91.98-.08.02-1.19.35-4.62.37.12.24.2.57.07,1-.04.13-.14.24-.26.3-.08.04-1.52.7-4.4.77.09.11.16.22.2.34.08.23.12.68-.4,1.17-.05.05-.12.09-.19.11-.08.02-1.21.35-3.79.35Z" style="fill: #603913;"/>
    </g>
  </g>
  <g id="rentegningToej">
    <path d="M239.28,439.61s-5.87,9.58-23.49,14.94-1.53,0-1.53,0l-14.04,7.15s1.33,15.77-6.88,28.03c0,0,18.88,10.1,110.54,29.42l50.55,87.57s3.57.26,4.6-2.04c0,0-14.81-64.34-20.68-70.98l37.79,57.7s4.34.26,4.85-1.79c0,0-38.3-99.83-54.89-108.77,0,0-43.79-25.86-86.81-41.24Z" style="fill: #6d6e71; stroke: #3c2415; stroke-miterlimit: 10;"/>
    <path d="M214.26,456.6c1.02,15.32-13.28,17.36-13.28,17.36-2.3-23.74-7.16-30.05-8.51-32.68-2.33-4.56-37.79-10.21-37.79-10.21-42.55,1.7-45.62-15.83-45.62-15.83-9.53-70.81,21-101.9,21-101.9,7.49-8.51,17.47-6.02,17.47-6.02,2.04-6.3,15.29-12.62,15.29-12.62h0s10.35,6.61,15.83,18.64c0,0,5.4-12.23,9.2-14.78,0,0,12.11-5.19,13.3,8.77,0,0,9.87,3.57,18.89,17.87,0,0,40,78.47,43.4,75.91,0,0,3.74-2.38,28.09,4.26,0,0,.34-.68,1.19-1.19,0,0,2.04-1.87,15.15-1.36,0,0-1.36,9.53,3.23,9.7,0,0-45.45,8.17-48.51,13.96,0,0-40.17-29.79-49.02-55.49,0,0,5.28,25.53,7.83,29.62,0,0,13.55,8.98,18.15,38.94,0,0-4.87,14.51-25.3,17.06Z" style="fill: #fff; stroke: #3c2415; stroke-miterlimit: 10;"/>
    <path d="M184.47,320.27l-.84-.54c.28-.44,6.99-10.91,13.89-12.89l.28.96c-6.55,1.88-13.26,12.36-13.33,12.47Z" style="fill: #808285;"/>
    <path d="M175.69,321.49c-.06-.13-6.48-13.34-23.4-13.67l.02-1c17.55.34,24.22,14.11,24.28,14.25l-.91.43Z" style="fill: #808285;"/>
    <path d="M180.3,319.49s-2.98,2.55-5.32,6.89c0,0,4.3,5.62,5.32,7.15h2.55l-3.94,21.19s17.47,29.11,21.81,52.6c0,0-2.55-57.7-4.85-57.96,0,0-7.91-12.77-9.96-16.09l1.94-.77,2.66-7.91s-8.25-7.14-10.21-5.11Z" style="fill: #9fa562; stroke: #1a401d; stroke-miterlimit: 10; stroke-width: .75px;"/>
    <path d="M217.71,451.54c-3.01-24.11-17.13-40.94-17.27-41.11l.57-.49c.14.17,14.41,17.16,17.45,41.5l-.74.09Z" style="fill: #3c2415;"/>
    <circle cx="176.86" cy="343.36" r="2.16" style="fill: none; stroke: #3c2415; stroke-miterlimit: 10;"/>
    <circle cx="179.02" cy="367.59" r="2.16" style="fill: none; stroke: #3c2415; stroke-miterlimit: 10;"/>
    <circle cx="210.88" cy="456.99" r="1.31" style="fill: none; stroke: #3c2415; stroke-miterlimit: 10;"/>
    <circle cx="303.77" cy="410.19" r="1.38" style="fill: none; stroke: #3c2415; stroke-miterlimit: 10;"/>
    <circle cx="185.69" cy="388.48" r="2.16" style="fill: none; stroke: #3c2415; stroke-miterlimit: 10;"/>
    <circle cx="195.5" cy="413.45" r="2.16" style="fill: none; stroke: #3c2415; stroke-miterlimit: 10;"/>
    <circle cx="207.87" cy="437.45" r="2.16" style="fill: none; stroke: #3c2415; stroke-miterlimit: 10;"/>
    <path d="M291.94,413.74l-.82-.58c1.08-1.52.31-6.06-.08-7.68l.97-.23c.15.64,1.46,6.33-.08,8.49Z" style="fill: #3c2415;"/>
    <path d="M213.6,365.49l-.74-.12c1.75-10.49-5.25-23.87-5.32-24l.66-.35c.07.14,7.19,13.73,5.4,24.47Z" style="fill: #6d6e71;"/>
    <path d="M216.16,360.89l-.75-.07c.75-8.47-2.2-15.08-2.23-15.15l.68-.31c.03.07,3.06,6.85,2.3,15.53Z" style="fill: #6d6e71;"/>
    <path d="M131.29,393.43c-.51-14.94,7.68-26.02,7.76-26.13l.8.6c-.08.11-8.06,10.93-7.56,25.5l-1,.03Z" style="fill: #808285;"/>
    <path d="M133.06,397.88s22.74,13.79,62.43,42.64l2.16-.9s6.89,2.18,16.6,16.99" style="fill: none; stroke: #3c2415; stroke-miterlimit: 10;"/>
    <path d="M141.06,363.38l-.68-.31c5.07-11.17,6.08-25.33,6.09-25.48l.75.05c0,.14-1.03,14.44-6.16,25.73Z" style="fill: #6d6e71;"/>
    <path d="M145.34,361.11l-.56-.5c4.73-5.22,7.12-17.2,7.14-17.32l.74.14c-.1.5-2.46,12.3-7.32,17.68Z" style="fill: #6d6e71;"/>
    <path d="M338.34,533.71s-14.04-35.49-19.91-36c0,0-66.89-32.51-87.83-39.4" style="fill: none; stroke: #3c2415; stroke-miterlimit: 10;"/>
    <path d="M353.91,607.24s4.85-.77,5.11-2.04c0,0,1.79,5.11,3.57,6.13,0,0,6.13,4.34,13.02,1.28,0,0,15.57-7.91,22.47-5.36,0,0,1.02-.6-1.79,2.04s-21.19,9.7-22.21,11.49c0,0-7.66-3.57-9.96-.51l2.3,6.64s1.46-.73-8.87,1.6c-.29.07-.55-.21-.46-.49.52-1.54.98-6.39-3.18-20.77Z" style="fill: #3c2415; stroke: #3c2415; stroke-miterlimit: 10;"/>
    <path d="M376.09,591.18s4.55-1.37,4.63-2.59c0,0,2.39,4.47,4.24,5.17,0,0,6.45,3.17,12.67-.61,0,0,13.9-9.44,20.86-8.03,0,0,.9-.7-1.45,2.13s-19.06,11.87-19.8,13.66c0,0-7.82-2.25-9.62.89l3.08,5.81s1.3-.87-8.3,2.69c-.27.1-.56-.11-.51-.39.29-1.5.1-6.03-5.79-18.74Z" style="fill: #3c2415; stroke: #3c2415; stroke-miterlimit: 10;"/>
    <path d="M160.62,262.73s1.72,4.94,3.59,30.81c0,0,10.26,8.87,14.3,18.36,0,0,5.71-8.76,5.03-11.15-1.76-6.18,2.45-14.3,2.45-15.9,0,0-12.39,23.02-25.38-22.13Z" style="fill: #e0b18c;"/>
    <path d="M310.05,410.19c-5.57,6.72,4.99,9.93,12.13,10.5,6.63.53,13.89-3.59,21.72-6.84,10.42-4.32,23.93-10.85,30.2-14.64,3.37-2.04.41-5.98-1.64-7.8-.98-.87-8.02-4.94-14.88-3.58-4.24.84-12.54,5.28-20.35,8.52-11.15,4.62-19.94,7.56-25.54,12.43-4.24,3.69.13-.74-1.65,1.41Z" style="fill: #bcbec0; stroke: #3c2415; stroke-miterlimit: 10;"/>
    <polygon points="326.39 417.04 310.98 413 311.23 412.03 326.29 415.98 373.38 394.36 373.8 395.27 326.39 417.04" style="fill: #3c2415;"/>
    <g>
      <line x1="364.89" y1="390.64" x2="387.87" y2="381.79" style="fill: #fff;"/>
      <rect x="364.07" y="385.72" width="24.62" height="1" transform="translate(-113.62 160.99) rotate(-21.05)" style="fill: #3c2415;"/>
    </g>
    <circle cx="389.78" cy="380.51" r="1.91" style="fill: #808285; stroke: #3c2415; stroke-miterlimit: 10;"/>
    <path d="M308.48,403.41s13.9-4.04,14.41-7.66c0,0,.1-2.43,2.98-2,0,0,12.23,1.23,18.87,1.4,0,0,2.75,2.04-1.09,2.72,0,0-7.64,2.68-13.94-.22l-.11,1.58s-19.78,10.17-20.61,11.96c0,0-2.37-4.89-.49-7.79Z" style="fill: #eab896; stroke: #3c2415; stroke-miterlimit: 10;"/>
  </g>
  <g id="hotspot">
    <circle id="hotspotFjernbetjening" cx="338.34" cy="352.11" r="28.39" style="fill: #ff2121;"/>
    <circle id="hotspotAvis" cx="75.59" cy="640.04" r="28.39" style="fill: #ff2121;"/>
    <circle id="hotspotHoved" cx="274.53" cy="179.95" r="28.39" style="fill: #ff2121;"/>
  </g>
</svg>