<?xml version="1.0" encoding="UTF-8"?>
<svg id="Layer_2" data-name="Layer 2" xmlns="http://www.w3.org/2000/svg" viewBox="0 0 660.55 462.15">
  <g>
    <path d="M147.02,239.23h-23.52v11.85h18.49v10.88h-18.49v12.61h23.52v11.43h-35.28v-57.78h35.28v11.01Z" style="fill: #b2dcff; stroke: #da1800; stroke-miterlimit: 10; stroke-width: 4px;"/>
    <path d="M188.08,230.78l-9.84,3.85c-1.32-4.57-4.13-6.86-8.41-6.86-4.57,0-6.86,1.74-6.86,5.21,0,1.38.43,2.55,1.28,3.51.85.96,2.79,1.79,5.8,2.5,5.03,1.19,8.72,2.39,11.06,3.6,2.34,1.21,4.31,3.17,5.91,5.86,1.6,2.69,2.4,5.71,2.4,9.04,0,5.22-1.72,9.73-5.15,13.54-3.43,3.81-8.52,5.71-15.27,5.71-5.06,0-9.37-1.35-12.92-4.04-3.55-2.69-5.9-6.69-7.03-12l10.71-2.84c1.2,5.39,4.55,8.09,10.04,8.09,2.65,0,4.62-.6,5.92-1.8,1.3-1.2,1.95-2.63,1.95-4.3s-.59-3.01-1.77-3.94c-1.18-.93-3.46-1.81-6.83-2.63-6.29-1.53-10.77-3.61-13.44-6.25-2.67-2.64-4.01-6.5-4.01-11.58s1.6-9.47,4.79-12.99c3.19-3.53,7.52-5.29,12.99-5.29,9.69,0,15.92,4.53,18.69,13.59Z" style="fill: #b2dcff; stroke: #da1800; stroke-miterlimit: 10; stroke-width: 4px;"/>
    <path d="M236.82,249.73l-12.12.89c-.17-8.16-2.89-12.23-8.16-12.23-6.04,0-9.06,6.28-9.06,18.84,0,7.25.82,12.17,2.46,14.75,1.64,2.58,3.94,3.87,6.89,3.87,4.78,0,7.71-3.64,8.77-10.92l11.22.8c-.72,6.91-2.92,12.17-6.6,15.77s-8.18,5.4-13.51,5.4c-6.54,0-11.85-2.64-15.94-7.92-4.09-5.28-6.13-12.57-6.13-21.88,0-8.72,1.98-15.86,5.93-21.42,3.96-5.56,9.36-8.34,16.21-8.34,11.87,0,18.55,7.46,20.04,22.39Z" style="fill: #b2dcff; stroke: #da1800; stroke-miterlimit: 10; stroke-width: 4px;"/>
    <path d="M267.24,218.82l15.46,57.78h-12.43l-3.04-11.9h-15.97l-3.1,11.9h-10.14l15.83-57.78h13.39ZM254.03,254.04h10.46l-5.19-20.28-5.28,20.28Z" style="fill: #b2dcff; stroke: #da1800; stroke-miterlimit: 10; stroke-width: 4px;"/>
    <path d="M296.85,266.68v21.46h-11.76v-57.78h19.46c4.34,0,7.66.54,9.97,1.63,2.3,1.09,4.36,3.03,6.17,5.82,1.81,2.79,2.71,6.22,2.71,10.29,0,2.85-.48,5.63-1.45,8.34-.96,2.71-2.33,4.84-4.09,6.39-1.76,1.55-3.47,2.58-5.12,3.09-1.65.51-4.24.76-7.76.76h-8.14ZM296.45,256.19h7.53c2.87,0,4.88-.78,6.04-2.33,1.16-1.55,1.74-3.33,1.74-5.33,0-2.34-.65-4.2-1.94-5.59-1.29-1.38-3.25-2.07-5.88-2.07h-7.49v15.32Z" style="fill: #b2dcff; stroke: #da1800; stroke-miterlimit: 10; stroke-width: 4px;"/>
    <path d="M361.6,230.64h-23.52v11.85h18.49v10.88h-18.49v12.61h23.52v11.43h-35.28v-57.78h35.28v11.01Z" style="fill: #b2dcff; stroke: #da1800; stroke-miterlimit: 10; stroke-width: 4px;"/>
    <path d="M424.77,230.36v11.43h-12.23v46.35h-11.72v-46.35h-12.3v-11.43h36.25Z" style="fill: #b2dcff; stroke: #da1800; stroke-miterlimit: 10; stroke-width: 4px;"/>
    <path d="M467.86,218.08v57.78h-11.36v-23.83h-15.41v23.83h-11.36v-57.78h11.36v22.52h15.41v-22.52h11.36Z" style="fill: #b2dcff; stroke: #da1800; stroke-miterlimit: 10; stroke-width: 4px;"/>
    <path d="M508.57,238.3h-23.52v11.85h18.49v10.88h-18.49v12.61h23.52v11.43h-35.27v-57.78h35.27v11.01Z" style="fill: #b2dcff; stroke: #da1800; stroke-miterlimit: 10; stroke-width: 4px;"/>
  </g>
  <text transform="translate(501.52 297.19) scale(.79 1)" style="fill: #b2dcff; font-family: FranklinGothic-Heavy, &apos;Franklin Gothic Heavy&apos;; font-size: 116.57px; font-weight: 800; stroke: #da1800; stroke-miterlimit: 10; stroke-width: 3px;"><tspan x="0" y="0"> </tspan><tspan x="29.14" y="0" style="letter-spacing: .03em;">T</tspan><tspan x="87.2" y="0" style="letter-spacing: 0em;">V</tspan></text>
  <g>
    <path d="M639.13,298.19h-109.85c0-1.1.83-2,1.85-2h107.33l10.13-9.31,9.11-9.16v-35l-12.42-9.13-2.53-14.4h-118.19c0-1.1.83-2,1.85-2h117.87s2.67,15.21,2.67,15.21l12.6,9.26v36.93l-9.74,9.79-10.68,9.81Z" style="fill: #ff4c70;"/>
    <path d="M639.52,299.19h-111.24v-1c0-1.65,1.28-3,2.85-3h106.94l9.84-9.04,8.79-8.84v-34.08l-12.34-9.07-2.45-13.97h-118.35v-1c0-1.65,1.28-3,2.85-3h118.71l2.74,15.65,12.68,9.32v37.85l-10.03,10.08-11,10.11ZM531.13,297.19h107.62-107.62ZM526.41,218.19h117.03-117.03Z" style="fill: #da1800;"/>
  </g>
  <g>
    <line x1="569.22" y1="219.44" x2="526.53" y2="182.68" style="fill: #ff4c70;"/>
    <rect x="545.88" y="172.89" width="4" height="56.34" transform="translate(38 485) rotate(-49.26)" style="fill: #da1800;"/>
  </g>
  <g>
    <line x1="581.19" y1="219.44" x2="601.61" y2="182.68" style="fill: #ff4c70;"/>
    <rect x="570.37" y="199.06" width="42.06" height="4" transform="translate(128.42 620.38) rotate(-60.94)" style="fill: #da1800;"/>
  </g>
  <text/>
</svg>