<?xml version="1.0" encoding="UTF-8"?>
<svg id="Layer_2" data-name="Layer 2" xmlns="http://www.w3.org/2000/svg" viewBox="0 0 841.85 443.58">
  <path d="M486.19,172.91s-8.42-2.11-7.48,9.83l-.07,68.81c0,.42.03,3.04,2.18,5.03,2.69,2.17,4.98,1.8,5.38,1.76,39.06.13,78.11.26,117.17.38.37.03,2.76.27,4.5-1.51,1.07-1.09,1.79-2.96,1.35-6.13l.13-67.88s1.27-10.35-7.62-10.44l-115.53.14Z" style="fill: #f2ffe8; stroke: #683007; stroke-miterlimit: 10; stroke-width: 2px;"/>
  <path d="M563.72,169.52s-16.61-15.21-36.25,0h36.25Z" style="fill: #f2ffe8; stroke: #683007; stroke-miterlimit: 10; stroke-width: 2px;"/>
  <g>
    <line x1="527.47" y1="132.07" x2="541.03" y2="164.6" style="fill: #4f1f04;"/>
    <rect x="533.56" y="130.71" width="1.37" height="35.25" transform="translate(-15.94 217.02) rotate(-22.63)" style="fill: #4f1f04;"/>
  </g>
  <g>
    <line x1="555.07" y1="142.13" x2="546.41" y2="164.6" style="fill: #4f1f04;"/>
    <rect x="538.7" y="152.68" width="24.08" height="1.37" transform="translate(209.4 611.97) rotate(-68.9)" style="fill: #4f1f04;"/>
  </g>
  <path d="M491.69,178.18s-8.81-.1-8.42,11.23l-.23,53.37s-.47,9.93,8.65,9.83h78c.44,0,.88.09,1.33.09,5.57.06,8.36.24,7.91-11.56l.39-51.96s.14-11.94-12.55-11.07l-75.07.07Z" style="fill: #f4d264;"/>
  <path d="M494.76,181.79s-8.09-.09-7.73,9.9l-.21,47s-.44,8.75,7.94,8.66h71.59c.41,0,.81.08,1.22.08,5.11.05,7.68.21,7.26-10.18l.36-45.77s.13-10.51-11.52-9.75l-68.9.06Z" style="fill: #bace82; stroke: #683007; stroke-miterlimit: 10; stroke-width: 2px;"/>
  <path d="M585.24,178.18h17.54s1.92,0,1.64,3.74l.29,66.94s.13,3.51-1.92,3.28h-17.54s-2.22.06-2.1-3.98l-.11-66.47s-.12-3.51,2.22-3.51Z" style="fill: #f4d264;"/>
  <path d="M586.61,181.5h15.1s1.66,0,1.41,3.35l.25,59.84s.11,3.14-1.65,2.93h-15.1s-1.91.06-1.81-3.56l-.1-59.43s-.1-3.14,1.91-3.14Z" style="fill: #dda2b9;"/>
  <ellipse cx="594.03" cy="193.87" rx="6.82" ry="6.83" style="fill: #6da5e2; stroke: #683007; stroke-miterlimit: 10;"/>
  <ellipse cx="593.83" cy="213.53" rx="6.62" ry="6.63" style="fill: #6da5e2; stroke: #683007; stroke-miterlimit: 10;"/>
  <circle cx="593.83" cy="213.53" r="4.38" style="fill: #b3d0ff; stroke: #683007; stroke-miterlimit: 10;"/>
  <circle cx="593.83" cy="193.87" r="4.38" style="fill: #b3d0ff; stroke: #683007; stroke-miterlimit: 10;"/>
  <text transform="translate(490.72 240.58) scale(1.03 1)" style="fill: #fff; font-family: FranklinGothic-Heavy, &apos;Franklin Gothic Heavy&apos;; font-size: 69px; font-weight: 800;"><tspan x="0" y="0" style="letter-spacing: .03em;">T</tspan><tspan x="34.37" y="0">V</tspan></text>
  <text transform="translate(57.22 243.2)" style="fill: #5b88c9; font-family: FranklinGothic-HeavyItalic, &apos;Franklin Gothic Heavy&apos;; font-size: 73px; font-style: italic; font-weight: 800;"><tspan x="0" y="0">ES</tspan><tspan x="86.87" y="0" style="letter-spacing: -.02em;">C</tspan><tspan x="131.96" y="0">APE THE</tspan></text>
</svg>