<?xml version="1.0" encoding="UTF-8"?>
<svg id="Layer_2" data-name="Layer 2" xmlns="http://www.w3.org/2000/svg" viewBox="0 0 582.95 443.58">
  <path d="M166.15,130.91s-18.38-4.6-16.34,21.45l-.16,150.13c0,.92.06,6.64,4.75,10.98,5.87,4.73,10.87,3.93,11.74,3.83,85.28.28,170.55.56,255.83.84.81.08,6.03.59,9.82-3.29,2.33-2.39,3.91-6.46,2.94-13.38l.29-148.09s2.78-22.58-16.63-22.78l-252.26.31Z" style="fill: #f2ffe8; stroke: #683007; stroke-miterlimit: 10;"/>
  <path d="M335.43,123.5s-36.26-33.19-79.15,0h79.15Z" style="fill: #f2ffe8; stroke: #683007; stroke-miterlimit: 10;"/>
  <g>
    <line x1="256.28" y1="41.8" x2="285.89" y2="112.78" style="fill: #4f1f04;"/>
    <rect x="269.58" y="38.84" width="3" height="76.91" transform="translate(-8.86 110.35) rotate(-22.65)" style="fill: #4f1f04;"/>
  </g>
  <g>
    <line x1="316.53" y1="63.76" x2="297.64" y2="112.78" style="fill: #4f1f04;"/>
    <rect x="280.82" y="86.77" width="52.54" height="3" transform="translate(114.25 343.04) rotate(-68.92)" style="fill: #4f1f04;"/>
  </g>
  <path d="M178.15,142.4s-19.25-.23-18.38,24.51l-.5,116.43s-1.04,21.67,18.88,21.45h170.31c.97,0,1.93.19,2.9.2,12.16.13,18.26.52,17.26-25.22l.85-113.36s.31-26.04-27.41-24.15l-163.91.15Z" style="fill: #f4d264;"/>
  <path d="M184.85,150.29s-17.66-.2-16.87,21.59l-.46,102.55s-.95,19.09,17.33,18.89h156.31c.89,0,1.77.17,2.66.18,11.16.11,16.76.46,15.85-22.22l.78-99.85s.29-22.94-25.15-21.27l-150.44.13Z" style="fill: #bfe4e8; stroke: #683007; stroke-miterlimit: 10; stroke-width: 2px;"/>
  <path d="M382.4,142.4h38.3s4.2,0,3.57,8.17l.62,146.04s.29,7.66-4.2,7.15l-38.3.02s-4.84.11-4.6-8.71l-.25-145.02s-.26-7.66,4.84-7.66Z" style="fill: #f4d264;"/>
  <path d="M385.4,149.65h32.97s3.62,0,3.08,7.3l.54,130.56s.25,6.85-3.61,6.39l-32.97.02s-4.17.1-3.96-7.78l-.21-129.65s-.23-6.85,4.17-6.85Z" style="fill: #dda2b9;"/>
  <circle cx="401.61" cy="176.63" r="14.9" style="fill: #6da5e2; stroke: #683007; stroke-miterlimit: 10;"/>
  <circle cx="401.17" cy="219.53" r="14.46" style="fill: #6da5e2; stroke: #683007; stroke-miterlimit: 10;"/>
  <circle cx="401.17" cy="219.53" r="9.56" style="fill: #b3d0ff; stroke: #683007; stroke-miterlimit: 10;"/>
  <circle cx="401.17" cy="176.63" r="9.56" style="fill: #b3d0ff; stroke: #683007; stroke-miterlimit: 10;"/>
</svg>